# xmcd
#
# Track frame offsets: 
#        150
#        9846
#        21177
#        31831
#        49667
#        67147
#        75767
#        90517
#        101023
#        119798
#        131352
#        140614
#        147766
#        161028
#
# Disc length: 2207 seconds
#
# Revision: 0
# Processed by: cddbd v1.5.2PL0 Copyright (c) Steve Scherf et al.
# Submitted via: ExactAudioCopy v0.95b4
#
DISCID=b1089d0e
DTITLE=Saitenwanderer - alrerst lebe ich
DYEAR=2009
DGENRE=Folklore
TTITLE0=du bist min
TTITLE1=ich zog mir einen falken
TTITLE2=hélas madame
TTITLE3=a madre de jesu christo
TTITLE4=palästinalied
TTITLE5=ungaresca
TTITLE6=am morgen fruo
TTITLE7=klagende minne
TTITLE8=auf dem schwedenberge
TTITLE9=waldgespräch
TTITLE10=ich hab die nacht geträumet
TTITLE11=branle de chevaux
TTITLE12=das versunkene schiff
TTITLE13=branle d'ecosse
EXTD=
EXTT0=
EXTT1=
EXTT2=
EXTT3=
EXTT4=
EXTT5=
EXTT6=
EXTT7=
EXTT8=
EXTT9=
EXTT10=
EXTT11=
EXTT12=
EXTT13=
PLAYORDER=
